<svg xmlns="http://www.w3.org/2000/svg" viewBox="0 0 1000 1400" xmlns:bx="https://boxy-svg.com">
    <defs>
        <bx:guide x="117.0388738951251" y="358.77886020104665" angle="-90"></bx:guide>
        <bx:guide x="-621.5852439112396" y="-599.1703750287596" angle="0"></bx:guide>
        <bx:guide x="225.40782399391753" y="-611.3974278658267" angle="0"></bx:guide>
        <bx:guide x="-212.13360347045557" y="-853.2230379561227" angle="90"></bx:guide>
    </defs>
    <path style="fill: #ffcabe; "
        d="M 816.5976666666667 100.091 C 833.2793333333334 100.091 866.6426666666666 100.091 883.3243333333334 116.75766666666668 C 900.006 133.42433333333335 900.006 166.75766666666667 900.006 350.09083333333336 C 900.006 533.424 900.006 866.757 900.006 1049.9835 C 900.006 1233.21 900.006 1266.33 883.3243333333334 1282.9966666666667 C 866.6426666666666 1299.6633333333332 833.2793333333334 1299.8766666666668 792.0538333333334 1299.9833333333333 C 750.8283333333334 1300.09 701.7406666666667 1300.09 676.5525000000001 1283.4233333333334 C 651.3643333333333 1266.7566666666664 650.0756666666667 1233.4233333333332 641.2558333333334 1204.9166666666667 C 632.436 1176.4099999999999 616.085 1152.7299999999998 591.2281666666667 1136.0633333333333 C 566.3713333333334 1119.3966666666665 533.0086666666667 1109.743333333333 499.644 1109.7083333333333 C 466.27933333333334 1109.6733333333332 432.91266666666667 1119.2566666666664 408.3443333333333 1135.9233333333334 C 383.776 1152.59 368.00600000000003 1176.34 359.8593333333333 1204.8816666666667 C 351.7126666666666 1233.4233333333332 351.1893333333333 1266.7566666666664 325.7105 1283.4233333333334 C 300.2316666666666 1300.09 249.79733333333334 1300.09 208.2351666666667 1299.9833333333333 C 166.673 1299.8766666666668 133.983 1299.6633333333332 117.30133333333335 1282.9966666666667 C 100.61966666666667 1266.33 99.94633333333333 1233.21 100.003 1153.7118333333333 C 100.05966666666666 1074.2136666666665 100.84633333333333 948.3373333333333 100.84633333333333 781.6708333333335 C 100.84633333333333 615.0043333333333 100.05966666666666 407.54766666666666 100.003 287.1526666666667 C 99.94633333333333 166.75766666666667 100.61966666666667 133.42433333333335 117.30133333333333 116.75766666666665 C 133.983 100.091 166.673 100.091 283.11016666666666 100.091 C 399.54733333333337 100.091 599.7316666666667 100.091 699.8238333333334 100.091 C 799.916 100.091 799.916 100.091 816.5976666666667 100.091"
        bx:d="M 799.916 100.091 U 900.006 100.091 U 900.006 200.091 U 900.006 1200.09 U 900.006 1299.45 U 799.916 1300.09 U 652.653 1300.09 U 648.787 1200.09 U 599.734 1129.05 U 499.646 1100.09 U 399.546 1128.84 U 352.236 1200.09 U 350.666 1300.09 U 199.363 1300.09 U 101.293 1299.45 U 99.273 1200.09 U 101.633 822.461 U 99.273 200.091 U 101.293 100.091 U 199.363 100.091 U 799.916 100.091 Z 1@6de7bf58"></path>
    <path style="scale: 0.95; fill: #fa847f; "
        d="M 842.9266666666667 126.29899999999999 C 859.6083333333332 126.29900000000002 892.9716666666667 126.29900000000002 909.6533333333333 142.96566666666666 C 926.335 159.63233333333335 926.335 192.9656666666667 926.335 376.29416666666674 C 926.335 559.6226666666666 926.335 892.9463333333333 926.7660000000001 1079.9931666666666 C 927.1970000000001 1267.04 928.0590000000001 1307.81 910.5210000000001 1327.9116666666666 C 892.9830000000001 1348.0133333333333 857.0450000000001 1347.4466666666667 820.5808333333334 1347.23 C 784.1166666666667 1347.0133333333333 747.1263333333333 1347.1466666666668 727.8326666666667 1327.6183333333333 C 708.5390000000001 1308.09 706.942 1268.8999999999999 692.9298333333332 1236.89 C 678.9176666666667 1204.88 652.4903333333333 1180.05 622.6529999999999 1164.2283333333332 C 592.8156666666667 1148.4066666666668 559.5683333333333 1141.5933333333332 526.1951666666668 1141.5583333333334 C 492.82200000000006 1141.5233333333333 459.32300000000004 1148.2666666666667 430.05483333333336 1163.4233333333334 C 400.7866666666667 1178.58 375.74933333333337 1202.1499999999999 363.0055 1234.57 C 350.2616666666666 1266.99 349.8113333333333 1308.26 328.98883333333333 1328.8999999999999 C 308.16633333333334 1349.54 266.97166666666664 1349.55 229.82016666666667 1349.4066666666665 C 192.66866666666667 1349.2633333333333 159.56033333333332 1348.9666666666667 142.8545 1328.4183333333333 C 126.14866666666667 1307.8700000000001 125.84533333333333 1267.07 126.087 1183.7346666666667 C 126.32866666666666 1100.3993333333333 127.11533333333334 974.5286666666667 127.11533333333334 807.8668333333334 C 127.11533333333334 641.205 126.32866666666666 433.752 126.272 313.35883333333334 C 126.21533333333333 192.9656666666667 126.88866666666667 159.63233333333335 143.57066666666665 142.96566666666666 C 160.25266666666667 126.29900000000002 192.9433333333333 126.29900000000002 309.3905 126.29899999999999 C 425.8376666666666 126.29900000000002 626.0413333333333 126.29900000000002 726.1431666666667 126.29899999999999 C 826.245 126.29900000000002 826.245 126.29900000000002 842.9266666666667 126.29899999999999"
        bx:d="M 826.245 126.299 U 926.335 126.299 U 926.335 226.299 U 926.335 1226.27 U 928.921 1348.58 U 821.107 1346.88 U 710.136 1347.28 U 705.345 1229.71 U 626.063 1155.22 U 526.321 1134.78 U 425.824 1155.01 U 350.712 1225.72 U 349.361 1349.53 U 225.777 1349.56 U 126.452 1348.67 U 125.542 1226.27 U 127.902 848.658 U 125.542 226.299 U 127.562 126.299 U 225.634 126.299 U 826.245 126.299 Z 1@e8e689ba"></path>
    <g transform="matrix(1, 0, 0, 1, 600.005371, 975.092224)">
        <ellipse style="fill: #ffcabe; " cx="-101.49" cy="-74.908"
            rx="124.102" ry="125.092"></ellipse>
        <ellipse style="fill: #f7827c; " cx="-100.49" cy="-75.078"
            rx="99.997" ry="100"></ellipse>
        <ellipse style="fill: #ffcabe;" cx="-100" cy="-75" rx="75"
            ry="75"></ellipse>

    </g>
    <g transform="matrix(1, 0, 0, 1, 600.005371, 1000.092224)">
        <rect x="-326.04" y="-745.14" width="200" height="200"
            style="fill: #ffcabe; "></rect>
        <rect x="-300" y="-718.99" width="147.991" height="147.492"
            style="fill: #f7827c; "></rect>
        <rect x="-275.28" y="-694.35" width="98.87" height="99.988"
            style="fill: #ffcabe; "></rect>
    </g>
    <g transform="matrix(1, 0, 0, 1, 600.005371, 1000.092224)">
        <rect x="-326.04" y="-500" width="200" height="200"
            style="fill: #ffcabe; "></rect>
        <rect x="-300" y="-472.92" width="147.991" height="147.492"
            style="fill: #f7827c; "></rect>
        <rect x="-275.28" y="-448.82" width="98.87" height="99.988"
            style="fill: #ffcabe; "></rect>
    </g>
    <g transform="matrix(1, 0, 0, 1, 600.005371, 1000.092224)">
        <polygon
            style="fill: #ffcabe; transform-box: fill-box; transform-origin: 50% 50%;"
            points="-75.168 -544.51 -75.255 -675.08 79.26 -675.06 78.965 -745.14 124.745 -745.14 124.745 -545.13"
            transform="matrix(-1, 0, 0, -1, 0, -0.000016)"></polygon>
        <rect x="-124.32" y="624.614" width="148.409" height="76.464"
            style="fill: #f7827c; transform-box: fill-box; transform-origin: 50% 50%;"
            transform="matrix(-1, 0, 0.010948, -1, 75.910268, -1343.60413)"></rect>

        <rect x="-86.995" y="335.404" width="103.851" height="41.06"
            style="fill: #ffcabe; transform-origin: -35.069px 355.933px;"
            transform="matrix(1, 0, -0.010948, 1, 59.413181, -1035.496216)"></rect>

    </g>
    <g transform="matrix(-1, 0, 0, -1, 600.005371, 1244.602173)"
        style="transform-origin: 24.745px -644.825px;">
        <polygon
            style="fill: #ffcabe; transform-box: fill-box; transform-origin: 50% 50%;"
            points="-75.168 -544.51 -75.255 -675.08 79.26 -675.06 78.965 -745.14 124.745 -745.14 124.745 -545.13"
            transform="matrix(-1, 0, 0, -1, 0, -0.000016)"></polygon>
        <rect x="-124.32" y="624.614" width="148.409" height="76.464"
            style="fill: #f7827c; transform-box: fill-box; transform-origin: 50% 50%;"
            transform="matrix(-1, 0, 0.010948, -1, 75.910268, -1343.60413)"></rect>

        <rect x="-86.995" y="335.404" width="103.851" height="41.06"
            style="fill: #ffcabe; transform-origin: -35.069px 355.933px;"
            transform="matrix(-1, 0, 0.010948, -1, 60.214832, -1038.077271)"></rect>

    </g>
</svg>